<svg xmlns="http://www.w3.org/2000/svg" xmlns:xlink="http://www.w3.org/1999/xlink" viewBox="0 0 773.05 804.88"><defs><style>.cls-1{isolation:isolate;}.cls-2{opacity:0.5;}.cls-17,.cls-22,.cls-3,.cls-8{fill:none;}.cls-3{stroke:#bfcbdd;stroke-dasharray:5 5 5 5 5 5;}.cls-17,.cls-22,.cls-3,.cls-36,.cls-37,.cls-8{stroke-linecap:round;stroke-linejoin:round;}.cls-4{fill:#ccd3ff;}.cls-5{fill:#8082f0;}.cls-28,.cls-6{fill:#fff;}.cls-7{fill:#edf0ff;}.cls-17,.cls-22,.cls-36,.cls-8{stroke:#8082f0;}.cls-8{stroke-width:4px;}.cls-10,.cls-14,.cls-15,.cls-16,.cls-18,.cls-19,.cls-21,.cls-9{opacity:0.5;}.cls-10,.cls-14,.cls-15,.cls-16,.cls-18,.cls-19,.cls-21,.cls-23,.cls-30,.cls-9{mix-blend-mode:overlay;}.cls-9{fill:url(#linear-gradient);}.cls-10{fill:url(#linear-gradient-2);}.cls-11{fill:#fcbe1c;}.cls-12{fill:#fb8400;}.cls-13{fill:#6166e9;}.cls-14{fill:url(#linear-gradient-3);}.cls-15{fill:url(#linear-gradient-4);}.cls-16{fill:url(#linear-gradient-5);}.cls-17{stroke-width:5px;}.cls-18{fill:url(#linear-gradient-6);}.cls-19{fill:url(#linear-gradient-7);}.cls-20{fill:#268ff1;}.cls-21{fill:url(#linear-gradient-8);}.cls-22{stroke-width:3px;}.cls-23{opacity:0.45;}.cls-24{fill:url(#linear-gradient-9);}.cls-25,.cls-27{fill:#484ae5;}.cls-26,.cls-31{opacity:0.65;}.cls-26,.cls-27,.cls-31,.cls-32,.cls-35{mix-blend-mode:multiply;}.cls-26{fill:url(#linear-gradient-10);}.cls-27{opacity:0.71;}.cls-28,.cls-33{opacity:0.95;}.cls-29{fill:#31aff5;}.cls-30{opacity:0.44;fill:url(#linear-gradient-11);}.cls-31{fill:url(#linear-gradient-12);}.cls-32{opacity:0.2;}.cls-34{fill:#d662f2;}.cls-35{opacity:0.6;fill:url(#linear-gradient-13);}.cls-36,.cls-37{fill:#f9f9f9;}.cls-37{stroke:#d0d5ff;}</style><linearGradient id="linear-gradient" x1="433.34" y1="657.33" x2="371.11" y2="729.03" gradientUnits="userSpaceOnUse"><stop offset="0" stop-color="#ff91e2"/><stop offset="0.1" stop-color="#ff97e4" stop-opacity="0.94"/><stop offset="0.28" stop-color="#fea6e9" stop-opacity="0.78"/><stop offset="0.55" stop-color="#febef0" stop-opacity="0.51"/><stop offset="0.87" stop-color="#fcdffa" stop-opacity="0.16"/><stop offset="1" stop-color="#fcedff" stop-opacity="0"/></linearGradient><linearGradient id="linear-gradient-2" x1="672.7" y1="533.3" x2="603.89" y2="612.57" xlink:href="#linear-gradient"/><linearGradient id="linear-gradient-3" x1="192.06" y1="201.7" x2="130.56" y2="272.55" xlink:href="#linear-gradient"/><linearGradient id="linear-gradient-4" x1="724.87" y1="347.19" x2="663.37" y2="418.04" xlink:href="#linear-gradient"/><linearGradient id="linear-gradient-5" x1="281.67" y1="590.04" x2="205.19" y2="678.14" xlink:href="#linear-gradient"/><linearGradient id="linear-gradient-6" x1="610.19" y1="157.18" x2="525.95" y2="254.22" xlink:href="#linear-gradient"/><linearGradient id="linear-gradient-7" x1="164.41" y1="367.9" x2="80.18" y2="464.95" xlink:href="#linear-gradient"/><linearGradient id="linear-gradient-8" x1="351.11" y1="81.3" x2="302.11" y2="137.75" xlink:href="#linear-gradient"/><linearGradient id="linear-gradient-9" x1="483.69" y1="417.48" x2="284.94" y2="392.12" xlink:href="#linear-gradient"/><linearGradient id="linear-gradient-10" x1="303.64" y1="392.93" x2="379.26" y2="493.33" gradientUnits="userSpaceOnUse"><stop offset="0" stop-color="#5657c7"/><stop offset="0.07" stop-color="#6156c9" stop-opacity="0.94"/><stop offset="0.52" stop-color="#a74ed9" stop-opacity="0.56"/><stop offset="0.84" stop-color="#d249e2" stop-opacity="0.32"/><stop offset="1" stop-color="#e347e6" stop-opacity="0.23"/></linearGradient><linearGradient id="linear-gradient-11" x1="494.49" y1="367.41" x2="376.91" y2="502.88" xlink:href="#linear-gradient"/><linearGradient id="linear-gradient-12" x1="14200.46" y1="392.93" x2="14276.08" y2="493.33" gradientTransform="matrix(-1, 0, 0, 1, 14671.48, 0)" xlink:href="#linear-gradient-10"/><linearGradient id="linear-gradient-13" x1="361.49" y1="317.93" x2="430.79" y2="197.16" xlink:href="#linear-gradient-10"/></defs><title>contratos</title><g class="cls-1"><g id="Layer_1" data-name="Layer 1"><g class="cls-2"><line class="cls-3" x1="707.94" y1="242.24" x2="686.34" y2="374.12"/><polyline class="cls-3" points="662.52 390.36 424.62 423.98 630.77 578.36 568.77 692.83"/><line class="cls-3" x1="97.44" y1="648.97" x2="231.31" y2="638.62"/><polyline class="cls-3" points="79.9 632.69 114.53 418.62 301.35 421.58"/><polyline class="cls-3" points="165.88 111.94 322.24 111.94 396.87 353.08"/><polyline class="cls-3" points="149.06 126.94 149.06 245.82 308.16 376.29"/><line class="cls-3" x1="445.98" y1="589.75" x2="542.13" y2="695.94"/><line class="cls-3" x1="412.04" y1="580.17" x2="155.3" y2="472.87"/><line class="cls-3" x1="341.88" y1="479.36" x2="228.58" y2="607.13"/><line class="cls-3" x1="428.22" y1="563.15" x2="413.89" y2="479.28"/><polyline class="cls-3" points="470.56 90.47 564.24 207.89 422.74 358.69"/><line class="cls-3" x1="322.24" y1="109.91" x2="440.89" y2="88.55"/><line class="cls-3" x1="689.61" y1="226.57" x2="594.11" y2="226.57"/><line class="cls-3" x1="428.22" y1="595.57" x2="396.1" y2="714.66"/><line class="cls-3" x1="630.77" y1="547.97" x2="557.41" y2="236.26"/></g><path class="cls-4" d="M439,666.85v68.36a8.37,8.37,0,0,1-8.37,8.37H362.31a8.38,8.38,0,0,1-8.38-8.37V666.85a8.37,8.37,0,0,1,8.38-8.38h68.36A8.38,8.38,0,0,1,439,666.85Z"/><path class="cls-5" d="M436.9,666.85v68.36a8.37,8.37,0,0,1-8.37,8.37H360.18a8.38,8.38,0,0,1-8.39-8.37v-68.4a8.39,8.39,0,0,1,8.39-8.34h68.35A8.37,8.37,0,0,1,436.9,666.85Z"/><path class="cls-4" d="M439,666.85v68.36a8.37,8.37,0,0,1-8.37,8.37H362.31a8.38,8.38,0,0,1-8.38-8.37V666.85a8.37,8.37,0,0,1,8.38-8.38h68.36A8.38,8.38,0,0,1,439,666.85Z"/><rect class="cls-6" x="364.2" y="668.98" width="64.57" height="51.65"/><rect class="cls-7" x="426.62" y="668.98" width="2.35" height="51.65"/><circle class="cls-8" cx="396.15" cy="696.1" r="14.61"/><path class="cls-9" d="M439,666.85v68.36a8.37,8.37,0,0,1-8.37,8.37h-4.83c-1.23-4.23-2-8.71-4.37-12.37-3.76-5.72-10.44-8.06-17-10.58a70,70,0,0,1-7.16-3.12,35.05,35.05,0,0,1-16.61-19.15c-2.88-8.14-2.67-17.17-5.9-25.17a23.39,23.39,0,0,0-2.23-4.22c-2.93-4.36-7.41-7.7-12.51-7.35a10.4,10.4,0,0,0-5.57,2.21,11.82,11.82,0,0,0-2.7,3,8.39,8.39,0,0,1,8.39-8.34h70.49A8.38,8.38,0,0,1,439,666.85Z"/><rect class="cls-5" x="364.2" y="727.16" width="39.33" height="2.84"/><rect class="cls-5" x="364.2" y="733.47" width="30.52" height="2.84"/><path class="cls-4" d="M679,543.82V619.4a9.25,9.25,0,0,1-9.25,9.25H594.17a9.26,9.26,0,0,1-9.27-9.25V543.82a9.26,9.26,0,0,1,9.27-9.27h75.58A9.27,9.27,0,0,1,679,543.82Z"/><path class="cls-5" d="M676.64,543.82V619.4a9.25,9.25,0,0,1-9.26,9.25H591.8a9.26,9.26,0,0,1-9.26-9.25V543.78a9.27,9.27,0,0,1,9.26-9.23h75.58A9.27,9.27,0,0,1,676.64,543.82Z"/><path class="cls-4" d="M679,543.82V619.4a9.25,9.25,0,0,1-9.25,9.25H594.17a9.26,9.26,0,0,1-9.27-9.25V543.82a9.26,9.26,0,0,1,9.27-9.27h75.58A9.27,9.27,0,0,1,679,543.82Z"/><rect class="cls-6" x="596.26" y="546.17" width="71.39" height="57.11"/><rect class="cls-7" x="665.27" y="546.17" width="2.6" height="57.11"/><polygon class="cls-5" points="625.48 566.84 625.48 584.86 642.4 575.97 625.48 566.84"/><path class="cls-5" d="M632,595.15a19.3,19.3,0,1,1,19.29-19.3A19.32,19.32,0,0,1,632,595.15Zm0-35.71a16.42,16.42,0,1,0,16.42,16.41A16.44,16.44,0,0,0,632,559.44Z"/><path class="cls-10" d="M679,543.82V619.4a9.25,9.25,0,0,1-9.25,9.25h-5.34c-1.36-4.67-2.19-9.63-4.84-13.66-4.15-6.34-11.54-8.92-18.79-11.71a76.26,76.26,0,0,1-7.92-3.44,38.83,38.83,0,0,1-18.37-21.18c-3.18-9-2.94-19-6.51-27.83a26.07,26.07,0,0,0-2.47-4.66c-3.24-4.83-8.19-8.51-13.84-8.13a11.45,11.45,0,0,0-6.15,2.44,12.85,12.85,0,0,0-3,3.3,9.27,9.27,0,0,1,9.26-9.23h78A9.27,9.27,0,0,1,679,543.82Z"/><rect class="cls-5" x="596.26" y="610.5" width="43.48" height="3.14"/><rect class="cls-5" x="596.26" y="617.48" width="33.75" height="3.14"/><circle class="cls-11" cx="670.47" cy="615.01" r="19.86"/><circle class="cls-12" cx="670.47" cy="615.01" r="14.77" transform="translate(-185.06 305.44) rotate(-22.64)"/><path class="cls-6" d="M674,616.37l-1.23-1.24a2.8,2.8,0,0,1-.75,1.28,3,3,0,0,1-3.37.59,2.83,2.83,0,0,1-.85-.59l-3.91-3.91a3,3,0,1,1,4.24-4.23l3.91,3.91a3,3,0,0,1,.58.85,2.84,2.84,0,0,1,.84.57l1,1v0a4.63,4.63,0,0,0-.68-2.75,5.22,5.22,0,0,0-.64-.8l-3.91-3.91a4.59,4.59,0,1,0-6.48,6.49l3.91,3.91a4.34,4.34,0,0,0,.79.64,4.8,4.8,0,0,0,2.79.69,4.61,4.61,0,0,0,2.89-1.33A4.79,4.79,0,0,0,674,616.37Z"/><path class="cls-6" d="M678.53,616.39l-3.91-3.91a4.2,4.2,0,0,0-.79-.63,4.64,4.64,0,0,0-2.76-.7h0a4.68,4.68,0,0,0-1.74.49,4.24,4.24,0,0,0-1.18.84,4.52,4.52,0,0,0-1.32,2.9,4.62,4.62,0,0,0,.7,2.8,4.22,4.22,0,0,0,.63.78l3.91,3.91a4.59,4.59,0,0,0,6.49-6.48Zm-5.36,5.36-3.91-3.91a2.81,2.81,0,0,1-.58-.84,3,3,0,0,1,.57-3.4,2.65,2.65,0,0,1,1.28-.74,3.09,3.09,0,0,1,3,.74l3.91,3.91a2.41,2.41,0,0,1,.33.4,3,3,0,0,1-4.56,3.84Z"/><path class="cls-13" d="M711.67,510.71h0a16.93,16.93,0,0,0-16.93-16.93H665a16.93,16.93,0,0,0-16.93,16.93h0A16.93,16.93,0,0,0,665,527.64h29.76A16.93,16.93,0,0,0,711.67,510.71Z"/><polygon class="cls-13" points="660.76 539.31 661.73 526.87 671.66 526.87 660.76 539.31"/><path class="cls-6" d="M697.71,510.71a3.53,3.53,0,1,0-3.53,3.53A3.54,3.54,0,0,0,697.71,510.71Z"/><path class="cls-6" d="M683.17,510.71a3.53,3.53,0,1,0-3.53,3.53A3.54,3.54,0,0,0,683.17,510.71Z"/><path class="cls-6" d="M668.64,510.71a3.54,3.54,0,1,0-3.53,3.53A3.54,3.54,0,0,0,668.64,510.71Z"/><path class="cls-4" d="M197.69,211.1v67.55a8.28,8.28,0,0,1-8.27,8.28H121.86a8.28,8.28,0,0,1-8.28-8.28V211.1a8.3,8.3,0,0,1,8.28-8.28h67.56A8.28,8.28,0,0,1,197.69,211.1Z"/><path class="cls-5" d="M195.58,211.1v67.55a8.28,8.28,0,0,1-8.28,8.28H119.75a8.28,8.28,0,0,1-8.28-8.28V211.07a8.28,8.28,0,0,1,8.28-8.25H187.3A8.28,8.28,0,0,1,195.58,211.1Z"/><path class="cls-4" d="M197.69,211.1v67.55a8.28,8.28,0,0,1-8.27,8.28H121.86a8.28,8.28,0,0,1-8.28-8.28V211.1a8.3,8.3,0,0,1,8.28-8.28h67.56A8.28,8.28,0,0,1,197.69,211.1Z"/><rect class="cls-6" x="123.73" y="213.2" width="63.81" height="51.04"/><rect class="cls-7" x="185.41" y="213.2" width="2.32" height="51.04"/><path class="cls-14" d="M197.69,211.1v67.55a8.28,8.28,0,0,1-8.27,8.28h-4.77c-1.22-4.18-2-8.61-4.33-12.22-3.71-5.66-10.31-8-16.8-10.46a70.16,70.16,0,0,1-7.07-3.08A34.68,34.68,0,0,1,140,242.24c-2.84-8-2.63-17-5.82-24.87A23.51,23.51,0,0,0,132,213.2c-2.9-4.31-7.32-7.61-12.36-7.26a10.12,10.12,0,0,0-5.5,2.18,11.39,11.39,0,0,0-2.67,2.95,8.28,8.28,0,0,1,8.28-8.25h69.67A8.28,8.28,0,0,1,197.69,211.1Z"/><rect class="cls-5" x="123.73" y="270.7" width="38.86" height="2.81"/><rect class="cls-5" x="123.73" y="276.94" width="30.16" height="2.81"/><polyline class="cls-8" points="143.16 238.87 153.48 250.71 170.43 228.63"/><path class="cls-4" d="M730.5,356.59v67.55a8.27,8.27,0,0,1-8.27,8.28H654.68a8.28,8.28,0,0,1-8.28-8.28V356.59a8.26,8.26,0,0,1,8.28-8.28h67.55A8.28,8.28,0,0,1,730.5,356.59Z"/><path class="cls-5" d="M728.39,356.59v67.55a8.27,8.27,0,0,1-8.27,8.28H652.57a8.29,8.29,0,0,1-8.29-8.28V356.56a8.3,8.3,0,0,1,8.29-8.25h67.55A8.28,8.28,0,0,1,728.39,356.59Z"/><path class="cls-4" d="M730.5,356.59v67.55a8.27,8.27,0,0,1-8.27,8.28H654.68a8.28,8.28,0,0,1-8.28-8.28V356.59a8.26,8.26,0,0,1,8.28-8.28h67.55A8.28,8.28,0,0,1,730.5,356.59Z"/><rect class="cls-6" x="656.55" y="358.7" width="63.81" height="51.04"/><rect class="cls-7" x="718.23" y="358.7" width="2.32" height="51.04"/><path class="cls-15" d="M730.5,356.59v67.55a8.27,8.27,0,0,1-8.27,8.28h-4.77c-1.21-4.18-2-8.61-4.32-12.22-3.72-5.66-10.32-8-16.8-10.46a69.36,69.36,0,0,1-7.08-3.08,34.7,34.7,0,0,1-16.41-18.93c-2.85-8-2.64-17-5.83-24.87a23.46,23.46,0,0,0-2.2-4.17c-2.9-4.31-7.32-7.61-12.37-7.26a10.15,10.15,0,0,0-5.5,2.18,11.57,11.57,0,0,0-2.67,2.95,8.3,8.3,0,0,1,8.29-8.25h69.66A8.28,8.28,0,0,1,730.5,356.59Z"/><rect class="cls-5" x="656.55" y="416.19" width="38.86" height="2.81"/><rect class="cls-5" x="656.55" y="422.43" width="30.16" height="2.81"/><polyline class="cls-8" points="675.98 384.36 686.3 396.2 703.24 374.12"/><path class="cls-4" d="M288.67,601.73v84A10.28,10.28,0,0,1,278.38,696h-84a10.29,10.29,0,0,1-10.3-10.28v-84a10.33,10.33,0,0,1,10.3-10.3h84A10.3,10.3,0,0,1,288.67,601.73Z"/><path class="cls-5" d="M286,601.73v84A10.28,10.28,0,0,1,275.76,696h-84a10.29,10.29,0,0,1-10.3-10.28v-84a10.31,10.31,0,0,1,10.3-10.26h84A10.29,10.29,0,0,1,286,601.73Z"/><path class="cls-4" d="M288.67,601.73v84A10.28,10.28,0,0,1,278.38,696h-84a10.29,10.29,0,0,1-10.3-10.28v-84a10.33,10.33,0,0,1,10.3-10.3h84A10.3,10.3,0,0,1,288.67,601.73Z"/><rect class="cls-6" x="196.71" y="604.34" width="79.34" height="63.47"/><rect class="cls-7" x="273.41" y="604.34" width="2.88" height="63.47"/><path class="cls-16" d="M288.67,601.73v84A10.28,10.28,0,0,1,278.38,696h-5.93c-1.51-5.19-2.43-10.7-5.38-15.19-4.61-7-12.82-9.91-20.88-13a84.9,84.9,0,0,1-8.8-3.82A43.15,43.15,0,0,1,217,640.45c-3.53-10-3.27-21.09-7.24-30.93a28.59,28.59,0,0,0-2.74-5.18c-3.6-5.37-9.1-9.46-15.38-9a12.54,12.54,0,0,0-6.83,2.71,14.35,14.35,0,0,0-3.32,3.67,10.31,10.31,0,0,1,10.3-10.26h86.62A10.3,10.3,0,0,1,288.67,601.73Z"/><rect class="cls-5" x="193.36" y="679.79" width="38.86" height="2.81"/><rect class="cls-5" x="193.36" y="686.02" width="30.16" height="2.81"/><polyline class="cls-17" points="220.87 636.25 233.7 650.98 254.77 623.52"/><circle class="cls-11" cx="182.11" cy="686.65" r="19.86"/><circle class="cls-12" cx="182.11" cy="686.65" r="14.77" transform="translate(-250.26 123) rotate(-22.64)"/><path class="cls-6" d="M185.68,688l-1.24-1.23a2.7,2.7,0,0,1-.74,1.28,3,3,0,0,1-3.37.58,2.56,2.56,0,0,1-.86-.58l-3.91-3.91a3,3,0,1,1,4.24-4.24l3.91,3.91a2.68,2.68,0,0,0,1.43,1.43l1,1v0a4.62,4.62,0,0,0-.69-2.75,5.22,5.22,0,0,0-.64-.8l-3.91-3.91a4.58,4.58,0,1,0-6.48,6.48l3.91,3.91a4.32,4.32,0,0,0,.8.64,4.76,4.76,0,0,0,2.78.7,4.57,4.57,0,0,0,2.89-1.34A4.91,4.91,0,0,0,185.68,688Z"/><path class="cls-6" d="M190.17,688l-3.91-3.91a4.2,4.2,0,0,0-.79-.63,4.57,4.57,0,0,0-2.76-.7h0a4.61,4.61,0,0,0-1.74.48,4.33,4.33,0,0,0-1.18.85,4.55,4.55,0,0,0-.62,5.69,4.2,4.2,0,0,0,.63.79l3.91,3.91a4.58,4.58,0,0,0,6.48-6.48Zm-5.36,5.35-3.91-3.9a2.54,2.54,0,0,1-.57-.85,3,3,0,0,1,.56-3.39,2.7,2.7,0,0,1,1.28-.74,2.79,2.79,0,0,1,2.12.17,2.54,2.54,0,0,1,.85.57l3.91,3.91a2.88,2.88,0,0,1,.32.39,3,3,0,0,1-4.56,3.84Z"/><path class="cls-4" d="M617.9,170.05v92.52a11.32,11.32,0,0,1-11.33,11.33H514.05a11.34,11.34,0,0,1-11.35-11.33V170.05a11.34,11.34,0,0,1,11.35-11.34h92.52A11.34,11.34,0,0,1,617.9,170.05Z"/><path class="cls-5" d="M615,170.05v92.52a11.31,11.31,0,0,1-11.32,11.33H511.15a11.33,11.33,0,0,1-11.34-11.33V170a11.35,11.35,0,0,1,11.34-11.3h92.53A11.33,11.33,0,0,1,615,170.05Z"/><path class="cls-4" d="M617.9,170.05v92.52a11.32,11.32,0,0,1-11.33,11.33H514.05a11.34,11.34,0,0,1-11.35-11.33V170.05a11.34,11.34,0,0,1,11.35-11.34h92.52A11.34,11.34,0,0,1,617.9,170.05Z"/><rect class="cls-6" x="516.61" y="172.93" width="87.39" height="69.91"/><rect class="cls-7" x="601.08" y="172.93" width="3.18" height="69.91"/><rect class="cls-5" x="542.66" y="191.69" width="37.78" height="39.4"/><polygon class="cls-5" points="567.45 198.44 561.29 187.72 555.66 197.71 553.66 196.59 561.28 183.1 569.43 197.3 567.45 198.44"/><rect class="cls-6" x="547.25" y="196.67" width="28.6" height="29.43"/><path class="cls-18" d="M617.9,170.05v92.52a11.32,11.32,0,0,1-11.33,11.33H600c-1.67-5.72-2.69-11.79-5.93-16.73-5.08-7.75-14.12-10.91-23-14.33a94.71,94.71,0,0,1-9.69-4.21,47.52,47.52,0,0,1-22.48-25.93c-3.89-11-3.61-23.23-8-34.07a31.84,31.84,0,0,0-3-5.7c-4-5.91-10-10.42-16.93-10a14,14,0,0,0-7.54,3,15.81,15.81,0,0,0-3.65,4,11.35,11.35,0,0,1,11.34-11.3h95.42A11.34,11.34,0,0,1,617.9,170.05Z"/><rect class="cls-5" x="516.61" y="251.68" width="53.23" height="3.85"/><rect class="cls-5" x="516.61" y="260.22" width="41.31" height="3.85"/><circle class="cls-11" cx="546.78" cy="163.24" r="19.86"/><circle class="cls-12" cx="546.78" cy="163.24" r="14.77"/><path class="cls-6" d="M550.34,164.6l-1.24-1.24a2.7,2.7,0,0,1-.74,1.28,3,3,0,0,1-3.37.59,2.71,2.71,0,0,1-.85-.59l-3.91-3.91a3,3,0,1,1,4.23-4.23l3.91,3.91a2.83,2.83,0,0,1,.59.85,3,3,0,0,1,.84.57l1,1v0a4.7,4.7,0,0,0-.68-2.75,5.9,5.9,0,0,0-.64-.8l-3.91-3.91a4.59,4.59,0,1,0-6.49,6.49l3.91,3.91a4.78,4.78,0,0,0,.8.64,4.69,4.69,0,0,0,2.79.69,4.49,4.49,0,0,0,2.88-1.33A4.91,4.91,0,0,0,550.34,164.6Z"/><path class="cls-6" d="M554.83,164.62l-3.91-3.91a3.85,3.85,0,0,0-.78-.63,4.59,4.59,0,0,0-2.77-.69s0,0,0,0a4.44,4.44,0,0,0-1.74.48,4.24,4.24,0,0,0-1.18.84,4.58,4.58,0,0,0-1.33,2.9,4.68,4.68,0,0,0,.71,2.8,3.85,3.85,0,0,0,.63.78l3.91,3.91a4.58,4.58,0,0,0,6.48-6.48ZM549.47,170l-3.91-3.91a3.08,3.08,0,0,1,0-4.24,2.78,2.78,0,0,1,1.28-.74,2.92,2.92,0,0,1,2.13.17,3,3,0,0,1,.84.57l3.91,3.91a3.08,3.08,0,0,1,0,4.24A3,3,0,0,1,549.47,170Z"/><circle class="cls-11" cx="614.3" cy="263.17" r="19.86"/><circle class="cls-12" cx="614.3" cy="263.17" r="14.77"/><path class="cls-6" d="M617.87,264.53l-1.24-1.24a2.65,2.65,0,0,1-.74,1.28,3,3,0,0,1-3.37.59,2.75,2.75,0,0,1-.86-.59l-3.91-3.91a3,3,0,1,1,4.24-4.23l3.91,3.91a2.63,2.63,0,0,1,.58.85,2.73,2.73,0,0,1,.85.58l1,1v0a4.65,4.65,0,0,0-.69-2.76,4.71,4.71,0,0,0-.64-.79l-3.91-3.91a4.58,4.58,0,1,0-6.48,6.48l3.91,3.91a4.78,4.78,0,0,0,.8.64,4.68,4.68,0,0,0,2.78.69A4.51,4.51,0,0,0,617,265.7,4.91,4.91,0,0,0,617.87,264.53Z"/><path class="cls-6" d="M622.36,264.55l-3.91-3.91a4.2,4.2,0,0,0-.79-.63,4.56,4.56,0,0,0-2.76-.69h0a4.44,4.44,0,0,0-1.74.48,4.1,4.1,0,0,0-1.18.84,4.57,4.57,0,0,0-.62,5.7,3.85,3.85,0,0,0,.63.78l3.91,3.91a4.58,4.58,0,0,0,6.48-6.48ZM617,269.91,613.09,266a2.61,2.61,0,0,1-.57-.84,3,3,0,0,1,.56-3.39,2.72,2.72,0,0,1,1.28-.75,2.89,2.89,0,0,1,2.12.17,2.73,2.73,0,0,1,.85.58l3.91,3.91a2.37,2.37,0,0,1,.32.39,3,3,0,0,1-4.56,3.84Z"/><path class="cls-4" d="M172.12,380.78V473.3a11.32,11.32,0,0,1-11.32,11.33H68.27A11.34,11.34,0,0,1,56.93,473.3V380.78a11.35,11.35,0,0,1,11.34-11.35H160.8A11.34,11.34,0,0,1,172.12,380.78Z"/><path class="cls-5" d="M169.23,380.78V473.3a11.33,11.33,0,0,1-11.33,11.33H65.38A11.34,11.34,0,0,1,54,473.3V380.73a11.35,11.35,0,0,1,11.34-11.3H157.9A11.34,11.34,0,0,1,169.23,380.78Z"/><path class="cls-4" d="M172.12,380.78V473.3a11.32,11.32,0,0,1-11.32,11.33H68.27A11.34,11.34,0,0,1,56.93,473.3V380.78a11.35,11.35,0,0,1,11.34-11.35H160.8A11.34,11.34,0,0,1,172.12,380.78Z"/><rect class="cls-6" x="70.83" y="383.66" width="87.39" height="69.91"/><rect class="cls-7" x="155.31" y="383.66" width="3.18" height="69.91"/><circle class="cls-17" cx="114.53" cy="418.62" r="15.49" transform="translate(-319.19 434.34) rotate(-76.77)"/><path class="cls-19" d="M172.12,380.78V473.3a11.32,11.32,0,0,1-11.32,11.33h-6.53c-1.67-5.72-2.69-11.79-5.93-16.73-5.09-7.76-14.13-10.92-23-14.33a97,97,0,0,1-9.69-4.21,47.54,47.54,0,0,1-22.48-25.94c-3.9-11-3.61-23.22-8-34.06a31.51,31.51,0,0,0-3-5.7c-4-5.92-10-10.43-16.94-10a13.85,13.85,0,0,0-7.53,3,15.77,15.77,0,0,0-3.65,4,11.35,11.35,0,0,1,11.34-11.3H160.8A11.34,11.34,0,0,1,172.12,380.78Z"/><rect class="cls-5" x="70.83" y="462.41" width="53.23" height="3.85"/><rect class="cls-5" x="70.83" y="470.95" width="41.31" height="3.85"/><path class="cls-20" d="M34.44,515.06h0a21.69,21.69,0,0,0,21.69,21.69H94.25a21.69,21.69,0,0,0,21.69-21.69h0a21.69,21.69,0,0,0-21.69-21.69H56.13A21.69,21.69,0,0,0,34.44,515.06Z"/><polygon class="cls-20" points="99.65 478.41 98.42 494.35 85.69 494.35 99.65 478.41"/><path class="cls-6" d="M52.32,515.06a4.53,4.53,0,1,0,4.53-4.53A4.52,4.52,0,0,0,52.32,515.06Z"/><path class="cls-6" d="M71,515.06a4.52,4.52,0,1,0,4.52-4.53A4.52,4.52,0,0,0,71,515.06Z"/><path class="cls-6" d="M89.57,515.06a4.53,4.53,0,1,0,4.52-4.53A4.52,4.52,0,0,0,89.57,515.06Z"/><path class="cls-4" d="M355.59,88.79v53.82A6.59,6.59,0,0,1,349,149.2H295.18a6.6,6.6,0,0,1-6.6-6.59V88.79a6.5,6.5,0,0,1,.45-2.38,6.61,6.61,0,0,1,6.15-4.22H349A6.6,6.6,0,0,1,355.59,88.79Z"/><path class="cls-5" d="M353.91,88.79v53.82a6.59,6.59,0,0,1-6.59,6.59H293.5a6.6,6.6,0,0,1-6.6-6.59V88.76a6.61,6.61,0,0,1,6.6-6.57h53.82A6.6,6.6,0,0,1,353.91,88.79Z"/><path class="cls-4" d="M355.59,88.79v53.82A6.59,6.59,0,0,1,349,149.2H295.18a6.6,6.6,0,0,1-6.6-6.59V88.79a6.5,6.5,0,0,1,.45-2.38,6.61,6.61,0,0,1,6.15-4.22H349A6.6,6.6,0,0,1,355.59,88.79Z"/><rect class="cls-6" x="296.67" y="90.47" width="50.83" height="40.67"/><rect class="cls-7" x="345.81" y="90.47" width="1.85" height="40.67"/><path class="cls-21" d="M355.59,88.79v53.82A6.59,6.59,0,0,1,349,149.2h-3.8c-1-3.33-1.56-6.86-3.44-9.73-3-4.51-8.22-6.35-13.39-8.34a57.1,57.1,0,0,1-5.64-2.45,27.64,27.64,0,0,1-13.07-15.08c-2.27-6.41-2.1-13.52-4.64-19.82a19.6,19.6,0,0,0-1.76-3.32c-2.31-3.44-5.83-6.06-9.85-5.78A8,8,0,0,0,289,86.41a9.54,9.54,0,0,0-2.13,2.35,6.61,6.61,0,0,1,6.6-6.57H349A6.6,6.6,0,0,1,355.59,88.79Z"/><rect class="cls-5" x="296.67" y="136.27" width="30.96" height="2.24"/><rect class="cls-5" x="296.67" y="141.24" width="24.03" height="2.24"/><path class="cls-22" d="M331.38,109.91a9.14,9.14,0,1,1-9.14-9.14A9.14,9.14,0,0,1,331.38,109.91Z"/><path class="cls-13" d="M488.34,367.69v96.07a9.19,9.19,0,0,1-12.11,8.72l-89.76-30.16-.07,0-.08,0-88.74,29.82a10,10,0,0,1-13.13-9.43V364.83a8.91,8.91,0,0,1,1.92-5.52,9,9,0,0,1,4.18-3l85.91-28.79a31.32,31.32,0,0,1,20,0l83,27.87a12.93,12.93,0,0,1,8.83,12.27Z"/><polygon class="cls-13" points="386.47 324.13 386.47 324.19 386.4 324.15 386.47 324.13"/><polygon class="cls-13" points="386.4 324.15 386.32 324.19 386.32 324.13 386.4 324.15"/><g class="cls-23"><path class="cls-24" d="M488.34,367.69v96.07a9.19,9.19,0,0,1-12.11,8.72l-89.76-30.16-.07,0-.08,0-88.74,29.82a10,10,0,0,1-13.13-9.43V364.83a8.91,8.91,0,0,1,1.92-5.52,9,9,0,0,1,4.18-3l85.91-28.79a31.32,31.32,0,0,1,20,0l83,27.87a12.93,12.93,0,0,1,8.83,12.27Z"/></g><path class="cls-25" d="M386.47,392.9V511.05L290.85,478.3a9.49,9.49,0,0,1-6.4-9V364.83a8.91,8.91,0,0,1,1.92-5.52Z"/><path class="cls-26" d="M294.38,465.11V381.27a5.36,5.36,0,0,1,7.07-5.08l71.43,24a5.35,5.35,0,0,1,3.66,5.08v83.84a5.36,5.36,0,0,1-7.07,5.08l-71.43-24A5.35,5.35,0,0,1,294.38,465.11Z"/><path class="cls-27" d="M313.07,464.21V406.08a3.28,3.28,0,0,1,4.32-3.1L367,419.63a3.28,3.28,0,0,1,2.24,3.11v54.13a6.15,6.15,0,0,1-8.1,5.83L315.3,467.31A3.26,3.26,0,0,1,313.07,464.21Z"/><path class="cls-28" d="M305.45,454.38V396.25a3.26,3.26,0,0,1,4.31-3.1l49.61,16.65a3.28,3.28,0,0,1,2.23,3.1V471a3.28,3.28,0,0,1-4.32,3.1l-49.6-16.65A3.27,3.27,0,0,1,305.45,454.38Z"/><path class="cls-29" d="M305.45,399.32v-3.07a3.26,3.26,0,0,1,4.31-3.1l49.61,16.65a3.28,3.28,0,0,1,2.23,3.1v5.27Z"/><path class="cls-29" d="M333.16,455.78a16.85,16.85,0,0,1-10-3.33,20.22,20.22,0,0,1-7.78-12.17h0c-2.24-10.37,3.59-20.47,13-22.5a16.58,16.58,0,0,1,13.35,3,20.68,20.68,0,0,1,5.71,26.45,16.54,16.54,0,0,1-10.93,8.22A16.37,16.37,0,0,1,333.16,455.78Zm-13.72-16.36a16.18,16.18,0,0,0,6.18,9.71,12.25,12.25,0,0,0,18.3-4,16.61,16.61,0,0,0-4.55-21.1,12.55,12.55,0,0,0-10.07-2.28c-7.2,1.56-11.62,9.47-9.86,17.63Z"/><polygon class="cls-29" points="328.08 428.69 328.08 444.51 339.62 437.34 328.08 428.69"/><path class="cls-5" d="M488.34,367.69v102.5a9.18,9.18,0,0,1-6.27,8.72l-95.75,32.14V392.9l99.19-33.29A12.93,12.93,0,0,1,488.34,367.69Z"/><path class="cls-30" d="M488.34,367.69v102.5a9.18,9.18,0,0,1-6.27,8.72l-95.75,32.14V392.9l99.19-33.29A12.93,12.93,0,0,1,488.34,367.69Z"/><path class="cls-31" d="M480.28,465.11V381.27a5.36,5.36,0,0,0-7.07-5.08l-71.43,24a5.35,5.35,0,0,0-3.66,5.08v83.84a5.36,5.36,0,0,0,7.07,5.08l71.43-24A5.35,5.35,0,0,0,480.28,465.11Z"/><g class="cls-32"><path class="cls-25" d="M417.47,465.44a1.12,1.12,0,0,1-1-.08,2,2,0,0,1-.49-.46l-8.46-12.43V467.3a1.6,1.6,0,0,1-.29.93,1.37,1.37,0,0,1-.71.57l-4.89,1.5a.7.7,0,0,1-.71-.14.93.93,0,0,1-.3-.75V440.94a1.6,1.6,0,0,1,.3-.92,1.29,1.29,0,0,1,.71-.55l3.87-1.1a1.19,1.19,0,0,1,1,.1,2.33,2.33,0,0,1,.5.47l8.45,12.49V436.72a1.54,1.54,0,0,1,.29-.91,1.28,1.28,0,0,1,.69-.55l4.78-1.35a.67.67,0,0,1,.69.15,1,1,0,0,1,.29.74l.05,28a1.67,1.67,0,0,1-.29.92,1.27,1.27,0,0,1-.69.56Z"/><path class="cls-25" d="M444.46,427.31a.66.66,0,0,1,.66.15.94.94,0,0,1,.29.73v4.51a1.52,1.52,0,0,1-.27.88,1.22,1.22,0,0,1-.67.54l-10.58,3.05,0,5.88,9.88-2.89a.65.65,0,0,1,.67.14,1,1,0,0,1,.28.73l0,4.52a1.64,1.64,0,0,1-.28.89,1.27,1.27,0,0,1-.67.54l-9.88,2.95,0,9.3a1.61,1.61,0,0,1-.28.9,1.33,1.33,0,0,1-.68.56l-4.71,1.44a.67.67,0,0,1-.68-.14.94.94,0,0,1-.29-.73l-.06-27.9a1.51,1.51,0,0,1,.29-.9,1.17,1.17,0,0,1,.68-.54Z"/><path class="cls-25" d="M466.77,421a.64.64,0,0,1,.65.15,1,1,0,0,1,.28.71l0,4.43a1.54,1.54,0,0,1-.27.87,1.13,1.13,0,0,1-.64.52l-6,1.74.1,21.59a1.53,1.53,0,0,1-.27.89,1.23,1.23,0,0,1-.65.54l-4.51,1.38a.63.63,0,0,1-.66-.14.91.91,0,0,1-.28-.72l-.1-21.7L448.33,433a.65.65,0,0,1-.66-.15,1,1,0,0,1-.29-.73v-4.5a1.52,1.52,0,0,1,.27-.88,1.22,1.22,0,0,1,.66-.53Z"/></g><g class="cls-33"><path class="cls-6" d="M424.38,458a1.11,1.11,0,0,1-1-.08,2.12,2.12,0,0,1-.5-.46l-8.46-12.43v14.83a1.61,1.61,0,0,1-.3.93,1.33,1.33,0,0,1-.71.57l-4.89,1.5a.7.7,0,0,1-.71-.14.93.93,0,0,1-.3-.75V433.53a1.6,1.6,0,0,1,.3-.92,1.32,1.32,0,0,1,.71-.55l3.88-1.1a1.13,1.13,0,0,1,1,.1,1.92,1.92,0,0,1,.5.47L422.38,444l0-14.71a1.61,1.61,0,0,1,.29-.91,1.3,1.3,0,0,1,.7-.55l4.77-1.35a.66.66,0,0,1,.69.15.92.92,0,0,1,.29.74l0,28a1.59,1.59,0,0,1-.29.92,1.27,1.27,0,0,1-.69.56Z"/><path class="cls-6" d="M451.36,419.9a.68.68,0,0,1,.67.15.94.94,0,0,1,.28.73l0,4.5a1.54,1.54,0,0,1-.28.89,1.22,1.22,0,0,1-.67.54l-10.57,3.05v5.88l9.88-2.89a.65.65,0,0,1,.67.14.94.94,0,0,1,.28.73l0,4.52a1.56,1.56,0,0,1-.28.89,1.25,1.25,0,0,1-.66.54l-9.89,2.95,0,9.3a1.54,1.54,0,0,1-.28.9,1.23,1.23,0,0,1-.68.55l-4.7,1.45a.69.69,0,0,1-.69-.14,1,1,0,0,1-.29-.74L434.16,426a1.58,1.58,0,0,1,.29-.9,1.2,1.2,0,0,1,.68-.54Z"/><path class="cls-6" d="M473.68,413.57a.6.6,0,0,1,.64.15.91.91,0,0,1,.28.71l0,4.43a1.53,1.53,0,0,1-.26.87,1.15,1.15,0,0,1-.65.52l-6,1.74.11,21.59a1.63,1.63,0,0,1-.27.89,1.27,1.27,0,0,1-.65.54l-4.52,1.38a.64.64,0,0,1-.66-.14,1,1,0,0,1-.28-.72l-.09-21.7-6.12,1.76a.64.64,0,0,1-.66-.14,1,1,0,0,1-.28-.73l0-4.5a1.51,1.51,0,0,1,.28-.88,1.15,1.15,0,0,1,.66-.53Z"/></g><path class="cls-34" d="M438.38,274.52h0a27.67,27.67,0,0,0-27.67-27.67H362.08a27.67,27.67,0,0,0-27.67,27.67h0a27.67,27.67,0,0,0,27.67,27.67h48.63A27.67,27.67,0,0,0,438.38,274.52Z"/><polygon class="cls-34" points="355.19 321.27 356.77 300.94 373 300.94 355.19 321.27"/><path class="cls-35" d="M410.71,246.85H362.08a27.67,27.67,0,0,0-5.37,54.81l-1.52,19.61,16.71-19.08h38.81a27.67,27.67,0,1,0,0-55.34Z"/><path class="cls-6" d="M415.57,274.52a5.78,5.78,0,1,0-5.77,5.77A5.77,5.77,0,0,0,415.57,274.52Z"/><path class="cls-6" d="M391.81,274.52a5.77,5.77,0,1,0-5.77,5.77A5.77,5.77,0,0,0,391.81,274.52Z"/><path class="cls-6" d="M368.06,274.52a5.78,5.78,0,1,0-5.78,5.77A5.77,5.77,0,0,0,368.06,274.52Z"/><polygon class="cls-36" points="166.83 100.48 166.83 121.07 149.08 127.08 131.3 121.07 131.3 100.48 149.05 94.53 149.06 94.52 149.08 94.53 166.83 100.48"/><polygon class="cls-36" points="149.08 94.52 149.08 94.53 149.06 94.52 149.08 94.52"/><polygon class="cls-36" points="149.06 94.52 149.05 94.53 149.05 94.52 149.06 94.52"/><polygon class="cls-36" points="131.31 121.11 131.31 100.62 149.08 106.5 149.06 126.94 131.31 121.11"/><polygon class="cls-36" points="166.83 121.11 166.83 100.66 149.06 106.48 149.06 126.94 166.83 121.11"/><polygon class="cls-36" points="577.65 695.81 577.65 716.39 559.91 722.4 542.13 716.39 542.13 695.81 559.88 689.85 559.89 689.84 559.91 689.85 577.65 695.81"/><polygon class="cls-36" points="559.91 689.84 559.91 689.85 559.89 689.84 559.91 689.84"/><polygon class="cls-36" points="559.89 689.84 559.88 689.85 559.88 689.84 559.89 689.84"/><polygon class="cls-36" points="542.13 716.44 542.13 695.94 559.91 701.82 559.89 722.26 542.13 716.44"/><polygon class="cls-36" points="577.66 716.44 577.66 695.98 559.89 701.8 559.89 722.26 577.66 716.44"/><polygon class="cls-37" points="443.66 571.03 443.66 588.93 428.23 594.15 412.77 588.93 412.77 571.03 428.21 565.85 428.22 565.84 428.23 565.85 443.66 571.03"/><polygon class="cls-37" points="428.23 565.84 428.23 565.85 428.22 565.84 428.23 565.84"/><polygon class="cls-37" points="428.22 565.84 428.21 565.85 428.21 565.84 428.22 565.84"/><polygon class="cls-37" points="412.78 588.97 412.78 571.15 428.23 576.26 428.22 594.03 412.78 588.97"/><polygon class="cls-37" points="443.66 588.97 443.66 571.18 428.22 576.24 428.22 594.03 443.66 588.97"/><polygon class="cls-37" points="474.23 72.75 474.23 90.8 458.66 96.08 443.07 90.8 443.07 72.75 458.64 67.52 458.65 67.51 458.66 67.52 474.23 72.75"/><polygon class="cls-37" points="458.66 67.51 458.66 67.52 458.65 67.51 458.66 67.51"/><polygon class="cls-37" points="458.65 67.51 458.64 67.52 458.64 67.51 458.65 67.51"/><polygon class="cls-37" points="443.07 90.84 443.07 72.86 458.66 78.02 458.65 95.95 443.07 90.84"/><polygon class="cls-37" points="474.23 90.84 474.23 72.9 458.65 78 458.65 95.95 474.23 90.84"/><polygon class="cls-37" points="97.66 638.66 97.66 659.24 79.91 665.25 62.14 659.24 62.14 638.66 79.89 632.7 79.9 632.69 79.91 632.7 97.66 638.66"/><polygon class="cls-37" points="79.91 632.69 79.91 632.7 79.9 632.69 79.91 632.69"/><polygon class="cls-37" points="79.9 632.69 79.89 632.7 79.89 632.69 79.9 632.69"/><polygon class="cls-37" points="62.14 659.29 62.14 638.79 79.91 644.67 79.9 665.11 62.14 659.29"/><polygon class="cls-37" points="97.66 659.29 97.66 638.83 79.9 644.65 79.9 665.11 97.66 659.29"/><polygon class="cls-36" points="723.17 216.45 723.17 234.11 707.95 239.26 692.7 234.11 692.7 216.45 707.93 211.34 707.94 211.33 707.95 211.34 723.17 216.45"/><polygon class="cls-36" points="707.95 211.33 707.95 211.34 707.94 211.33 707.95 211.33"/><polygon class="cls-36" points="707.94 211.33 707.93 211.34 707.93 211.33 707.94 211.33"/><polygon class="cls-36" points="692.7 234.15 692.7 216.57 707.95 221.61 707.94 239.14 692.7 234.15"/><polygon class="cls-36" points="723.17 234.15 723.17 216.6 707.94 221.59 707.94 239.14 723.17 234.15"/></g></g></svg>