<svg id="Layer_1" data-name="Layer 1" xmlns="http://www.w3.org/2000/svg" viewBox="0 0 289.98 125.81"><defs><style>.cls-1{fill:#c5c7c9;}.cls-2{fill:#6c55d6;}.cls-3{fill:#653dbd;}.cls-4{fill:#5c5c5c;}</style></defs><title>contratos</title><path class="cls-1" d="M281.21,28.87s-2.52-3.12-6.06-3.12-23.19-2.39-37.45,8c0,0-2.75-.6-5.53,2.24s-10,9.24-11.1,19.08,16.09,8.35,16.09,8.35,20.9.45,32.82-9.09c.2,0,.22.89.22.89S292.51,41.7,281.21,28.87Zm-43.06,21.8c-.57-.34-1.35-.61-1.91-.94a2.62,2.62,0,0,0-2.18-.11,3.24,3.24,0,0,0-1.73,2.18c-.37,1.09.12,2,.39,2.9-4.08-3.44-2.38-9.76,4.26-15.15,1.45-1.24,3.06-2.29,4.66-3.45.41-.41,1-.88.85-1.14l-.54-.14a18.35,18.35,0,0,0-6.59,1.84c5.85-3.48,13.09-5.7,19-5.61.94,0,1.7.12,2.65.15a8.67,8.67,0,0,1,2.12.41c1,.44,2.16.62,3.17,1.07a4.16,4.16,0,0,0,1,0,2,2,0,0,0,1.82-2,2.4,2.4,0,0,0-.76-2.19c3.73,2.09,4.75,5.87,1.45,10.42-.74,1-1.72,2-2.7,3.13-1.61,1.53-3.69,2.86-5.35,4.44-.42.37-.21.57-.21.82.68.58,2.61.29,4.12-.26,1.29-.49,2.78-1,4.05-1.64C257,51.31,244.54,53.86,238.15,50.67Z"/><path class="cls-2" d="M259.32,17.91s-4.51-4.12-8-4.12-24.71-3.14-32.35,10.6c0,0-3.14-.78-4.12,2.95s-4.12,12.18,1,25.14,21.37,11,21.37,11,21.18.59,27.06-12c.2,0,.79,1.17.79,1.17S278.73,34.8,259.32,17.91Zm-29.27,28.7c-.79-.44-1.74-.8-2.5-1.22s-1.47-.7-2.26-.15c-.9.78-.47,1.94-.35,2.86a11.43,11.43,0,0,0,2.22,3.81A16.28,16.28,0,0,1,221.84,32a41.59,41.59,0,0,1,2.48-4.54c.15-.55.44-1.16.13-1.5l-.63-.19a9.33,9.33,0,0,0-5.43,2.42,19.66,19.66,0,0,1,15.47-7.39c1,.05,1.78.16,2.74.2a9.28,9.28,0,0,1,2.38.55c1.27.57,2.56.81,3.85,1.4a4.34,4.34,0,0,0,1,0c1.43-.3.86-1.72.58-2.58a6.59,6.59,0,0,0-2.16-2.9c5.05,2.76,8.46,7.74,8.05,13.72a36.53,36.53,0,0,1-.73,4.12c-.63,2-1.87,3.77-2.53,5.86-.18.49.15.75.31,1.08,1,.75,2.8.38,4-.34a26.16,26.16,0,0,0,3-2.16C249.29,47.46,238.45,50.81,230.05,46.61Z"/><path class="cls-3" d="M23.1,84.25l-1.75,6.31H15.59L23.1,66h7.3L38,90.56H32l-1.9-6.31Zm6.24-4.16-1.53-5.22c-.44-1.46-.88-3.28-1.25-4.74h-.07c-.36,1.46-.73,3.32-1.13,4.74L23.9,80.09Z"/><path class="cls-3" d="M54,90.12a13.44,13.44,0,0,1-5,.8c-5.76,0-9.44-3.5-9.44-9.12,0-5.21,3.57-9.48,10.21-9.48A12.8,12.8,0,0,1,54,73l-.88,4.12a7.61,7.61,0,0,0-3.1-.54,5,5,0,0,0,.11,10A8.53,8.53,0,0,0,53.34,86Z"/><path class="cls-3" d="M63.84,67.61v5.11h4v4.09h-4v6.45c0,2.15.51,3.14,2.19,3.14a8.4,8.4,0,0,0,1.64-.15l0,4.2a11,11,0,0,1-3.61.47,5.76,5.76,0,0,1-4.16-1.53c-1-1.06-1.53-2.77-1.53-5.29V76.81H56V72.72h2.38V68.85Z"/><path class="cls-3" d="M76.75,67.76a2.78,2.78,0,0,1-3,2.77,2.79,2.79,0,1,1,0-5.58A2.78,2.78,0,0,1,76.75,67.76ZM71,90.56V72.72h5.54V90.56Z"/><path class="cls-3" d="M98.64,81.44C98.64,88,94,91,89.23,91,84,91,80,87.53,80,81.77s3.79-9.45,9.52-9.45A8.68,8.68,0,0,1,98.64,81.44Zm-12.92.18C85.72,84.68,87,87,89.37,87c2.15,0,3.54-2.15,3.54-5.36,0-2.66-1-5.36-3.54-5.36S85.72,79,85.72,81.62Z"/><path class="cls-3" d="M102.06,78.41c0-2.22-.07-4.12-.14-5.69h4.81l.26,2.44h.11a6.53,6.53,0,0,1,5.51-2.84c3.64,0,6.38,2.41,6.38,7.66V90.56h-5.55V80.67c0-2.3-.8-3.86-2.8-3.86a2.94,2.94,0,0,0-2.81,2.08,3.66,3.66,0,0,0-.22,1.38V90.56h-5.55Z"/><path class="cls-3" d="M124,66h13.25v2.67H127.16v8.17h9.3v2.62h-9.3V90.56H124Z"/><path class="cls-3" d="M144.26,67.94a2,2,0,0,1-4,0,2,2,0,0,1,2-2A1.9,1.9,0,0,1,144.26,67.94Zm-3.57,22.62V72.9h3.21V90.56Z"/><path class="cls-3" d="M149.23,77.68c0-1.82,0-3.32-.15-4.78h2.84l.19,2.92h.07A6.49,6.49,0,0,1,158,72.5c2.44,0,6.23,1.46,6.23,7.52V90.56H161V80.38c0-2.84-1-5.22-4.08-5.22a4.57,4.57,0,0,0-4.31,3.29,4.78,4.78,0,0,0-.21,1.49V90.56h-3.21Z"/><path class="cls-3" d="M173.19,67.83V72.9h4.59v2.45h-4.59v9.52c0,2.19.62,3.43,2.41,3.43a7.09,7.09,0,0,0,1.86-.22l.14,2.4a7.72,7.72,0,0,1-2.84.44,4.44,4.44,0,0,1-3.47-1.35c-.91-.95-1.24-2.51-1.24-4.59V75.35h-2.73V72.9h2.73V68.67Z"/><path class="cls-3" d="M183,82.31c.08,4.34,2.85,6.13,6.06,6.13a11.65,11.65,0,0,0,4.89-.91l.54,2.3a14.3,14.3,0,0,1-5.87,1.09c-5.43,0-8.68-3.57-8.68-8.9s3.14-9.52,8.28-9.52c5.76,0,7.3,5.07,7.3,8.32a13.16,13.16,0,0,1-.11,1.49ZM192.37,80c0-2-.83-5.22-4.45-5.22-3.24,0-4.66,3-4.92,5.22Z"/><path class="cls-3" d="M212,89.9a11.76,11.76,0,0,1-5.07,1c-5.32,0-8.79-3.61-8.79-9s3.72-9.37,9.49-9.37a10.74,10.74,0,0,1,4.45.91l-.73,2.48a7.43,7.43,0,0,0-3.72-.84c-4,0-6.24,3-6.24,6.68,0,4.08,2.63,6.6,6.13,6.6a9.14,9.14,0,0,0,3.94-.88Z"/><path class="cls-3" d="M215.79,64.66H219v11h.07a6,6,0,0,1,2.3-2.27,6.68,6.68,0,0,1,3.28-.91c2.37,0,6.17,1.46,6.17,7.55V90.56h-3.21V80.42c0-2.85-1.06-5.26-4.09-5.26a4.6,4.6,0,0,0-4.3,3.21,4,4,0,0,0-.22,1.54V90.56h-3.21Z"/><path class="cls-4" d="M150.32,106.19c0-.43.05-1.06.05-1.63V96.93h1.13v4h0a2.35,2.35,0,0,1,2.15-1.16c1.57,0,2.68,1.3,2.66,3.22,0,2.26-1.42,3.38-2.83,3.38a2.24,2.24,0,0,1-2.11-1.19h0l-.05,1Zm1.18-2.53a1.85,1.85,0,0,0,.06.42,1.76,1.76,0,0,0,1.72,1.35c1.2,0,1.92-1,1.92-2.43,0-1.27-.66-2.35-1.88-2.35a1.84,1.84,0,0,0-1.75,1.41,2,2,0,0,0-.07.47Z"/><path class="cls-4" d="M158.11,99.88l1.39,3.73c.14.42.3.92.4,1.29h0c.12-.37.25-.86.4-1.31l1.26-3.71h1.21l-1.72,4.5c-.83,2.17-1.39,3.28-2.17,4a3.06,3.06,0,0,1-1.41.75l-.29-1a3,3,0,0,0,1-.56,3.5,3.5,0,0,0,1-1.28.7.7,0,0,0,.1-.27,1,1,0,0,0-.08-.3l-2.34-5.82Z"/><path class="cls-4" d="M167.88,98.11a.71.71,0,0,1-1.42,0,.7.7,0,0,1,.72-.72A.68.68,0,0,1,167.88,98.11Zm-1.28,8.08V99.88h1.15v6.31Z"/><path class="cls-4" d="M169.65,101.59c0-.65,0-1.19-.05-1.71h1l.06,1h0a2.31,2.31,0,0,1,2.09-1.18c.87,0,2.23.52,2.23,2.68v3.77h-1.15v-3.63c0-1-.38-1.87-1.46-1.87a1.62,1.62,0,0,0-1.54,1.17,1.75,1.75,0,0,0-.08.54v3.79h-1.15Z"/><path class="cls-4" d="M176.89,101.59c0-.65,0-1.19,0-1.71h1l.07,1h0A2.31,2.31,0,0,1,180,99.74c.88,0,2.23.52,2.23,2.68v3.77h-1.15v-3.63c0-1-.37-1.87-1.46-1.87a1.64,1.64,0,0,0-1.54,1.17,1.77,1.77,0,0,0-.07.54v3.79h-1.15Z"/><path class="cls-4" d="M189.84,103a3.09,3.09,0,0,1-3.15,3.35,3,3,0,0,1-3-3.25,3.08,3.08,0,0,1,3.13-3.35A3,3,0,0,1,189.84,103Zm-5,.06c0,1.38.79,2.43,1.92,2.43s1.91-1,1.91-2.46c0-1.06-.53-2.42-1.89-2.42S184.83,101.85,184.83,103.05Z"/><path class="cls-4" d="M191.63,99.88l1.24,3.55a15.68,15.68,0,0,1,.51,1.62h0c.15-.52.33-1,.54-1.62l1.22-3.55h1.2l-2.47,6.31h-1.1l-2.4-6.31Z"/><path class="cls-4" d="M198.92,103.43l-.91,2.76h-1.17l3-8.79h1.37l3,8.79H203l-.94-2.76Zm2.89-.89-.87-2.53c-.19-.57-.32-1.09-.45-1.6h0c-.13.52-.27,1-.44,1.59l-.86,2.54Z"/><path class="cls-4" d="M209.79,106a4.19,4.19,0,0,1-1.82.37,3,3,0,0,1-3.14-3.23,3.21,3.21,0,0,1,3.39-3.35,3.75,3.75,0,0,1,1.59.33l-.26.88a2.71,2.71,0,0,0-1.33-.3,2.38,2.38,0,0,0,0,4.75,3.35,3.35,0,0,0,1.41-.31Z"/><path class="cls-4" d="M212.68,98.07v1.81h1.64v.88h-1.64v3.4c0,.78.22,1.23.86,1.23a2.44,2.44,0,0,0,.66-.08l.06.86a2.89,2.89,0,0,1-1,.16,1.56,1.56,0,0,1-1.24-.49,2.32,2.32,0,0,1-.44-1.64v-3.44h-1v-.88h1V98.37Z"/><path class="cls-4" d="M216.89,98.11a.71.71,0,0,1-1.42,0,.7.7,0,0,1,.71-.72A.69.69,0,0,1,216.89,98.11Zm-1.28,8.08V99.88h1.15v6.31Z"/><path class="cls-4" d="M224.38,103a3.09,3.09,0,0,1-3.15,3.35,3,3,0,0,1-3-3.25,3.09,3.09,0,0,1,3.14-3.35A3,3,0,0,1,224.38,103Zm-5,.06c0,1.38.79,2.43,1.91,2.43s1.92-1,1.92-2.46c0-1.06-.53-2.42-1.89-2.42S219.37,101.85,219.37,103.05Z"/><path class="cls-4" d="M225.82,101.59c0-.65,0-1.19,0-1.71h1l.07,1h0A2.31,2.31,0,0,1,229,99.74c.88,0,2.23.52,2.23,2.68v3.77h-1.14v-3.63c0-1-.38-1.87-1.47-1.87a1.62,1.62,0,0,0-1.53,1.17,1.5,1.5,0,0,0-.08.54v3.79h-1.15Z"/></svg>