<svg id="Layer_1" data-name="Layer 1" xmlns="http://www.w3.org/2000/svg" viewBox="0 0 258.01 94.5"><defs><style>.cls-1{fill:#c5c7c9;opacity:0.5;}.cls-2{fill:#fff;}</style></defs><title>contratos</title><path class="cls-1" d="M248.74,21.37s-2.17-2.69-5.21-2.69-19.94-2.05-32.2,6.93a5.45,5.45,0,0,0-4.76,1.92C204.18,30,198,35.48,197,44s13.83,7.18,13.83,7.18,18,.38,28.22-7.83c.17,0,.19.77.19.77S258.45,32.4,248.74,21.37Zm-37,18.74c-.49-.28-1.16-.52-1.65-.8a2.19,2.19,0,0,0-1.87-.09,2.79,2.79,0,0,0-1.49,1.87,3.86,3.86,0,0,0,.34,2.49c-3.51-3-2-8.39,3.66-13,1.25-1.06,2.64-2,4-3,.35-.36.86-.76.73-1-.16,0-.3-.09-.46-.12a15.64,15.64,0,0,0-5.67,1.58c5-3,11.26-4.9,16.35-4.83.82,0,1.47.1,2.28.13a7.42,7.42,0,0,1,1.83.36c.85.37,1.86.53,2.72.91a4.26,4.26,0,0,0,.85,0A1.68,1.68,0,0,0,234.9,23a2.06,2.06,0,0,0-.65-1.89c3.2,1.8,4.08,5,1.25,9-.65.89-1.49,1.73-2.33,2.69-1.38,1.32-3.17,2.46-4.6,3.83-.36.31-.18.48-.17.7.57.5,2.24.25,3.54-.22,1.1-.43,2.38-.89,3.47-1.42C227.91,40.67,217.2,42.86,211.71,40.11Z"/><path class="cls-2" d="M229.91,12S226,8.4,223,8.4s-21.25-2.7-27.82,9.12c0,0-2.7-.67-3.54,2.53s-3.54,10.48.84,21.62,18.38,9.46,18.38,9.46,18.21.5,23.27-10.3c.17,0,.68,1,.68,1S246.61,26.47,229.91,12ZM204.74,36.62c-.67-.38-1.49-.68-2.15-1s-1.26-.59-1.94-.13c-.77.68-.41,1.68-.3,2.46a9.76,9.76,0,0,0,1.91,3.28A14,14,0,0,1,197.68,24a36,36,0,0,1,2.13-3.91c.13-.47.39-1,.12-1.29l-.55-.16a8,8,0,0,0-4.66,2.08A16.88,16.88,0,0,1,208,14.41c.83,0,1.53.13,2.36.17a8,8,0,0,1,2,.46c1.1.5,2.2.71,3.31,1.21a3.31,3.31,0,0,0,.87,0c1.23-.25.74-1.47.5-2.22a5.71,5.71,0,0,0-1.85-2.49c4.34,2.38,7.27,6.66,6.92,11.8a32.84,32.84,0,0,1-.63,3.55c-.54,1.74-1.61,3.24-2.17,5-.16.42.12.64.26.92.89.65,2.41.33,3.41-.29a21.85,21.85,0,0,0,2.58-1.86C221.29,37.35,212,40.24,204.74,36.62Z"/><path class="cls-2" d="M26.78,69l-1.51,5.43H20.32l6.46-21.15h6.27l6.56,21.15H34.47L32.83,69Zm5.36-3.58-1.31-4.48c-.38-1.26-.76-2.82-1.07-4.08H29.7c-.32,1.26-.63,2.85-1,4.08l-1.26,4.48Z"/><path class="cls-2" d="M53.35,74a11.59,11.59,0,0,1-4.27.69c-4.95,0-8.12-3-8.12-7.84,0-4.49,3.07-8.16,8.78-8.16a11,11,0,0,1,3.64.6l-.75,3.54A6.6,6.6,0,0,0,50,62.4a4.3,4.3,0,0,0,.09,8.6,7.4,7.4,0,0,0,2.73-.47Z"/><path class="cls-2" d="M61.81,54.69v4.39h3.42v3.51H61.81v5.55c0,1.85.44,2.7,1.89,2.7a8.22,8.22,0,0,0,1.41-.12l0,3.6a9.41,9.41,0,0,1-3.11.41,4.93,4.93,0,0,1-3.57-1.32c-.88-.91-1.32-2.38-1.32-4.55V62.59h-2V59.08h2V55.75Z"/><path class="cls-2" d="M72.92,54.81a2.4,2.4,0,0,1-2.57,2.39,2.4,2.4,0,1,1,0-4.8A2.39,2.39,0,0,1,72.92,54.81ZM68,74.42V59.08h4.77V74.42Z"/><path class="cls-2" d="M91.74,66.57c0,5.62-4,8.19-8.1,8.19-4.48,0-7.93-3-7.93-7.9S79,58.73,83.9,58.73A7.46,7.46,0,0,1,91.74,66.57Zm-11.11.16c0,2.64,1.1,4.61,3.14,4.61,1.85,0,3-1.85,3-4.61,0-2.29-.88-4.61-3-4.61S80.63,64.47,80.63,66.73Z"/><path class="cls-2" d="M94.68,64c0-1.91-.06-3.54-.12-4.89H98.7l.22,2.1H99a5.63,5.63,0,0,1,4.74-2.45c3.14,0,5.49,2.07,5.49,6.59v9.1h-4.77v-8.5c0-2-.69-3.33-2.41-3.33a2.54,2.54,0,0,0-2.42,1.79,3.37,3.37,0,0,0-.19,1.19v8.85H94.68Z"/><path class="cls-2" d="M113.53,53.27h11.39v2.29h-8.66v7h8v2.26h-8v9.57h-2.73Z"/><path class="cls-2" d="M131,55a1.62,1.62,0,0,1-1.75,1.69A1.64,1.64,0,0,1,127.56,55a1.69,1.69,0,0,1,1.72-1.73A1.64,1.64,0,0,1,131,55ZM127.9,74.42V59.23h2.76V74.42Z"/><path class="cls-2" d="M135.24,63.34c0-1.56,0-2.85-.13-4.11h2.45l.16,2.51h.06a5.58,5.58,0,0,1,5-2.85c2.1,0,5.36,1.25,5.36,6.46v9.07H145.4V65.66c0-2.44-.91-4.48-3.51-4.48A4.05,4.05,0,0,0,138,65.29v9.13h-2.76Z"/><path class="cls-2" d="M155.85,54.87v4.36h4v2.11h-4v8.18c0,1.89.53,3,2.07,3a5.92,5.92,0,0,0,1.6-.19l.12,2.07a6.71,6.71,0,0,1-2.44.38,3.83,3.83,0,0,1-3-1.16c-.79-.82-1.07-2.16-1.07-3.95V61.34H150.8V59.23h2.35V55.6Z"/><path class="cls-2" d="M164.25,67.33c.07,3.73,2.45,5.27,5.21,5.27a9.91,9.91,0,0,0,4.2-.79l.47,2a12.26,12.26,0,0,1-5,.94c-4.67,0-7.46-3.07-7.46-7.65s2.7-8.19,7.12-8.19c4.95,0,6.27,4.36,6.27,7.15a10.82,10.82,0,0,1-.09,1.29Zm8.1-2c0-1.76-.73-4.48-3.83-4.48-2.79,0-4,2.57-4.24,4.48Z"/><path class="cls-2" d="M189.25,73.85a10.1,10.1,0,0,1-4.36.88c-4.58,0-7.56-3.11-7.56-7.75a7.72,7.72,0,0,1,8.16-8.06,9.3,9.3,0,0,1,3.82.78l-.62,2.14a6.39,6.39,0,0,0-3.2-.72c-3.48,0-5.37,2.57-5.37,5.74,0,3.51,2.26,5.67,5.27,5.67a7.77,7.77,0,0,0,3.39-.75Z"/><path class="cls-2" d="M192.48,52.15h2.76v9.47h.06a5.09,5.09,0,0,1,2-1.95,5.7,5.7,0,0,1,2.82-.78c2,0,5.3,1.25,5.3,6.49v9h-2.76V65.7c0-2.45-.91-4.52-3.51-4.52a4,4,0,0,0-3.7,2.76,3.29,3.29,0,0,0-.19,1.32v9.16h-2.76Z"/><path class="cls-2" d="M136.18,87.86c0-.37,0-.92,0-1.4V79.9h1v3.41h0a2,2,0,0,1,1.85-1c1.35,0,2.3,1.12,2.29,2.77,0,1.94-1.22,2.91-2.43,2.91a1.94,1.94,0,0,1-1.82-1h0l-.05.89Zm1-2.17a1.49,1.49,0,0,0,.05.36,1.52,1.52,0,0,0,1.48,1.15c1,0,1.65-.84,1.65-2.09,0-1.08-.57-2-1.62-2a1.57,1.57,0,0,0-1.5,1.21,1.47,1.47,0,0,0-.06.4Z"/><path class="cls-2" d="M142.88,82.43l1.19,3.21c.13.36.26.79.35,1.11h0c.11-.32.22-.74.35-1.13l1.08-3.19h1l-1.48,3.87c-.71,1.87-1.19,2.82-1.86,3.4a2.61,2.61,0,0,1-1.21.64l-.25-.83A2.51,2.51,0,0,0,143,89a2.87,2.87,0,0,0,.83-1.1.6.6,0,0,0,.08-.24.93.93,0,0,0-.06-.25l-2-5Z"/><path class="cls-2" d="M151.28,80.91a.58.58,0,0,1-.63.6.59.59,0,0,1-.59-.6.6.6,0,0,1,.62-.62A.58.58,0,0,1,151.28,80.91Zm-1.1,7V82.43h1v5.43Z"/><path class="cls-2" d="M152.81,83.9c0-.56,0-1-.05-1.47h.88l.05.9h0a2,2,0,0,1,1.8-1c.75,0,1.92.45,1.92,2.31v3.24h-1V84.73c0-.87-.32-1.6-1.26-1.6a1.4,1.4,0,0,0-1.32,1,1.53,1.53,0,0,0-.07.46v3.26h-1Z"/><path class="cls-2" d="M159,83.9c0-.56,0-1-.05-1.47h.88l0,.9h0a2,2,0,0,1,1.79-1c.75,0,1.92.45,1.92,2.31v3.24h-1V84.73c0-.87-.32-1.6-1.25-1.6a1.41,1.41,0,0,0-1.33,1,1.56,1.56,0,0,0-.06.46v3.26h-1Z"/><path class="cls-2" d="M170.16,85.1a2.66,2.66,0,0,1-2.7,2.89,2.58,2.58,0,0,1-2.6-2.8,2.65,2.65,0,0,1,2.69-2.88A2.57,2.57,0,0,1,170.16,85.1Zm-4.3.06c0,1.19.68,2.09,1.65,2.09s1.65-.89,1.65-2.11c0-.92-.47-2.09-1.63-2.09S165.86,84.13,165.86,85.16Z"/><path class="cls-2" d="M171.71,82.43l1.07,3.06c.17.49.32.94.43,1.39h0c.12-.45.28-.9.46-1.39l1-3.06h1l-2.13,5.43h-.94l-2.07-5.43Z"/><path class="cls-2" d="M178,85.49l-.79,2.37h-1l2.57-7.56h1.18l2.58,7.56h-1l-.81-2.37Zm2.48-.77-.74-2.17c-.17-.5-.28-1-.4-1.38h0c-.11.45-.23.91-.38,1.36l-.74,2.19Z"/><path class="cls-2" d="M187.32,87.66a3.55,3.55,0,0,1-1.56.32,2.58,2.58,0,0,1-2.7-2.78A2.75,2.75,0,0,1,186,82.32a3.36,3.36,0,0,1,1.37.28l-.22.77a2.26,2.26,0,0,0-1.15-.26,1.88,1.88,0,0,0-1.92,2,1.86,1.86,0,0,0,1.89,2,2.85,2.85,0,0,0,1.21-.27Z"/><path class="cls-2" d="M189.81,80.87v1.56h1.41v.76h-1.41v2.92c0,.68.19,1.06.73,1.06a2.45,2.45,0,0,0,.58-.07l0,.74a2.34,2.34,0,0,1-.87.14,1.38,1.38,0,0,1-1.07-.42,2,2,0,0,1-.38-1.41v-3H188v-.76h.84v-1.3Z"/><path class="cls-2" d="M193.43,80.91a.62.62,0,0,1-1.23,0,.6.6,0,0,1,.62-.62A.59.59,0,0,1,193.43,80.91Zm-1.1,7V82.43h1v5.43Z"/><path class="cls-2" d="M199.86,85.1a2.66,2.66,0,0,1-2.7,2.89,2.58,2.58,0,0,1-2.6-2.8,2.65,2.65,0,0,1,2.69-2.88A2.57,2.57,0,0,1,199.86,85.1Zm-4.3.06c0,1.19.68,2.09,1.65,2.09s1.64-.89,1.64-2.11c0-.92-.46-2.09-1.62-2.09S195.56,84.13,195.56,85.16Z"/><path class="cls-2" d="M201.11,83.9c0-.56,0-1-.05-1.47h.88l.05.9h0a2,2,0,0,1,1.8-1c.75,0,1.92.45,1.92,2.31v3.24h-1V84.73c0-.87-.33-1.6-1.26-1.6a1.4,1.4,0,0,0-1.32,1,1.53,1.53,0,0,0-.07.46v3.26h-1Z"/></svg>